<?xml version="1.0" standalone="no"?>
<!DOCTYPE svg PUBLIC "-//W3C//DTD SVG 20010904//EN"
 "http://www.w3.org/TR/2001/REC-SVG-20010904/DTD/svg10.dtd">
<svg version="1.0" xmlns="http://www.w3.org/2000/svg"
 width="640.000000pt" height="183.000000pt" viewBox="0 0 640.000000 183.000000"
 preserveAspectRatio="xMidYMid meet">

<g transform="translate(0.000000,183.000000) scale(0.100000,-0.100000)"
fill="#000000" stroke="none">
<path d="M2065 1474 c-86 -22 -142 -60 -172 -117 l-15 -30 53 7 c33 5 63 16
81 31 40 34 107 42 164 20 57 -22 95 -76 102 -145 l5 -50 43 0 44 0 0 49 c0
77 -51 166 -115 202 -50 27 -145 44 -190 33z"/>
<path d="M2910 915 c0 -370 3 -565 10 -565 7 0 10 195 10 565 0 370 -3 565
-10 565 -7 0 -10 -195 -10 -565z"/>
<path d="M3427 1466 c-91 -25 -137 -82 -137 -169 0 -99 46 -144 208 -203 76
-28 115 -63 105 -92 -19 -55 -94 -57 -268 -7 -18 5 -23 -1 -38 -48 -9 -29 -17
-57 -17 -60 0 -10 125 -45 187 -52 73 -9 167 8 209 37 49 34 69 74 69 143 0
108 -29 136 -238 220 -52 21 -69 33 -73 52 -14 55 59 76 169 48 36 -9 71 -14
76 -11 14 9 42 99 34 107 -5 3 -30 14 -58 22 -73 24 -171 29 -228 13z"/>
<path d="M3935 1458 c-3 -7 -4 -148 -3 -313 l3 -300 70 0 70 0 0 310 0 310
-68 3 c-48 2 -69 -1 -72 -10z"/>
<path d="M4285 1457 c-3 -7 -4 -147 -3 -312 l3 -300 68 -3 67 -3 0 99 0 99 85
5 c104 7 177 39 215 94 29 43 40 150 21 207 -18 52 -78 103 -140 116 -74 16
-310 15 -316 -2z m305 -139 c13 -14 20 -35 20 -60 0 -56 -32 -84 -103 -93 -85
-11 -87 -9 -87 90 l0 85 75 0 c63 0 77 -3 95 -22z"/>
<path d="M1935 1323 c-228 -27 -275 -64 -283 -220 -5 -96 5 -130 53 -172 45
-39 108 -51 273 -51 l137 0 -73 40 c-44 24 -87 40 -106 40 -71 0 -141 19 -163
46 -27 30 -32 118 -8 163 28 56 68 65 298 69 207 4 208 4 201 26 -22 71 -9 66
-161 65 -76 -1 -151 -4 -168 -6z"/>
<path d="M2378 1268 c4 -31 14 -51 39 -74 26 -24 33 -39 33 -68 l0 -36 51 0
52 0 -7 52 c-11 84 -40 124 -109 153 -59 24 -66 21 -59 -27z"/>
<path d="M1893 1223 c-30 -4 -33 -7 -33 -40 0 -110 59 -182 225 -274 168 -92
215 -150 215 -267 0 -41 1 -42 28 -36 68 15 65 10 60 84 -6 84 -44 158 -108
208 -65 52 -65 52 -53 52 5 0 30 -17 54 -38 27 -23 64 -43 94 -50 70 -18 88
-39 92 -109 6 -86 -16 -123 -87 -147 -45 -15 -89 -18 -247 -20 -210 -1 -209
-1 -175 -58 l17 -30 205 5 c237 5 290 16 338 72 37 41 57 126 48 203 -16 132
-76 172 -265 178 -108 3 -116 5 -179 39 -36 20 -80 48 -98 61 -39 30 -74 97
-74 142 0 20 -5 31 -12 30 -7 0 -28 -3 -45 -5z"/>
<path d="M1644 698 c13 -114 53 -157 167 -182 l26 -6 -10 46 c-8 33 -18 49
-38 59 -30 16 -49 60 -49 111 l0 34 -51 0 -52 0 7 -62z"/>
<path d="M1826 608 c20 -126 85 -213 185 -242 126 -38 267 1 327 89 12 17 22
33 22 36 0 2 -24 2 -52 0 -37 -2 -61 -10 -80 -27 -16 -12 -48 -26 -72 -29
-123 -19 -214 47 -234 168 -7 42 -8 42 -55 45 l-47 3 6 -43z"/>
<path d="M3292 488 c-24 -24 -13 -49 28 -65 63 -25 48 -71 -18 -58 -26 5 -26
5 -5 -6 26 -14 69 -5 77 16 9 25 -3 42 -45 58 -21 8 -39 20 -39 25 0 19 30 34
56 28 17 -5 23 -3 19 4 -9 14 -58 13 -73 -2z"/>
<path d="M3551 478 c-45 -116 -50 -132 -35 -110 11 15 27 22 49 22 22 0 38 -7
49 -22 12 -17 10 -8 -5 32 -37 96 -38 100 -44 100 -3 0 -9 -10 -14 -22z m39
-65 c0 -7 -11 -13 -25 -13 -28 0 -30 8 -13 45 l12 26 13 -23 c7 -13 12 -29 13
-35z"/>
<path d="M3760 426 l0 -76 45 0 c25 0 45 5 45 10 0 6 -16 10 -35 10 l-35 0 0
59 c0 33 -4 63 -10 66 -6 4 -10 -22 -10 -69z"/>
<path d="M4007 429 c-15 -40 -25 -74 -22 -77 3 -4 8 4 12 16 8 31 78 32 88 1
4 -11 9 -18 12 -15 6 6 -48 146 -56 146 -3 0 -19 -32 -34 -71z m63 -25 c0 -2
-11 -4 -25 -4 -28 0 -32 18 -14 52 11 20 12 20 25 -12 8 -18 14 -34 14 -36z"/>
<path d="M4241 423 c1 -43 4 -64 6 -48 3 17 8 34 13 38 15 16 48 -3 61 -35 7
-17 15 -26 17 -19 2 6 -3 22 -12 35 -13 21 -13 26 -1 36 36 30 9 70 -47 70
l-38 0 1 -77z m79 52 c18 -21 -4 -45 -41 -45 -24 0 -29 4 -29 23 0 13 3 27 7
30 12 12 50 7 63 -8z"/>
<path d="M4480 425 c0 -48 4 -74 10 -70 6 3 10 35 10 70 0 35 -4 67 -10 70 -6
4 -10 -22 -10 -70z"/>
<path d="M4664 492 c-16 -10 -34 -48 -34 -70 0 -29 38 -72 64 -72 34 0 56 31
56 77 0 57 -46 92 -86 65z m58 -19 c33 -30 13 -113 -28 -113 -41 0 -63 98 -26
119 24 14 33 13 54 -6z"/>
</g>
</svg>
