<?xml version="1.0" encoding="utf-8"?>
<!-- Generator: Adobe Illustrator 24.1.1, SVG Export Plug-In . SVG Version: 6.00 Build 0)  -->
<svg version="1.1" id="Layer_1" xmlns="http://www.w3.org/2000/svg" xmlns:xlink="http://www.w3.org/1999/xlink" x="0px" y="0px"
	 viewBox="0 0 512 512" style="enable-background:new 0 0 512 512;" xml:space="preserve">
<style type="text/css">
	.st0{fill:#2C3E50;}
	.st1{fill:#D35400;}
	.st2{fill:#95A5A6;}
	.st3{fill:#BDC3C7;}
	.st4{fill:#ECF0F1;}
	.st5{fill:#34495E;}
</style>
<g id="XMLID_1_">
	<path id="XMLID_3_" class="st0" d="M128.9,299c31.6,13.4,76.5,21.3,127,21.3s95.5-7.9,127-21.3H128.9L128.9,299z"/>
	<polygon id="XMLID_4_" class="st0" points="149.4,107.3 362.4,107.3 383.7,299 128.1,299 	"/>
	<path id="XMLID_5_" class="st1" d="M170.7,341.6c-48.9,23.7-97.8,47.3-145.9,72.6c-18.9,11-26,33.9-24.5,55.2
		c0.8,12.6-3.9,30,9.5,38.7c12.6,6.3,27.6,2.4,41,3.9h441.8c16.6-2.4,20.5-18.9,18.9-32.3c0-21.3,1.6-42.6-14.2-57.6
		c-12.6-12.6-30.8-18.9-45.8-27.6c-37.1-17.4-74.2-36.3-110.4-53.6H170.7V341.6z"/>
	<rect id="XMLID_6_" x="192" y="277.7" class="st2" width="127.8" height="106.5"/>
	<path id="XMLID_7_" class="st3" d="M255.9,0c-63.1,0-116,57.6-126.2,132.5c-2.4,0-4.7-2.4-7.1-2.4c-11,3.9-14.2,25.2-6.3,48.9
		c3.9,12.6,11,23.7,18.9,27.6c16.6,66.3,64.7,112.8,121.5,112.8s104.9-47.3,121.5-112.8c7.1-3.9,14.2-15,18.9-27.6
		c7.1-23.7,4.7-45-6.3-48.9c-2.4,0-4.7,2.4-7.1,2.4C371.9,57.6,319.1,0,255.9,0z"/>
	<path id="XMLID_8_" class="st4" d="M170.7,341.6c0,34.7,22.1,128.6,53.6,170.4h63.1c31.6-42.6,53.6-135.7,53.6-170.4
		C341.1,341.6,170.7,341.6,170.7,341.6z"/>
	<path id="XMLID_9_" class="st5" d="M255.9,0c-76.5,0-152.3,76.5-149.1,149.1c-0.8,47.3,21.3,97.8,22.1,145.2
		c22.1-27.6,21.3-61.5,20.5-96.2c4.7-23.7,0-57.6,21.3-70.2C221.2,102.6,252,52.9,268.6,0C268.6,0,255.9,0,255.9,0z"/>
	<path id="XMLID_10_" class="st2" d="M170.7,341.6c0,30,37.9,127.8,85.2,127.8s85.2-97.8,85.2-127.8H170.7z"/>
	<path id="XMLID_11_" class="st5" d="M255.9,0C332.5,0,408.2,76.5,405,149.1c0.8,47.3-21.3,97.8-22.1,145.2
		c-22.1-27.6-21.3-61.5-20.5-96.2c-4.7-23.7,0-57.6-21.3-70.2C290.7,102.6,259.9,52.9,243.3,0C243.3,0,255.9,0,255.9,0z"/>
</g>
</svg>
